<svg xmlns="http://www.w3.org/2000/svg" xmlns:xlink="http://www.w3.org/1999/xlink" viewBox="0,0,256,256" width="240px" height="240px" fill-rule="nonzero"><defs><linearGradient x1="3.842" y1="43.308" x2="46.225" y2="2.712" gradientUnits="userSpaceOnUse" id="color-1"><stop offset="0" stop-color="#000000"></stop><stop offset="1" stop-color="#000000"></stop></linearGradient></defs><g fill="none" fill-rule="nonzero" stroke="none" stroke-width="1" stroke-linecap="butt" stroke-linejoin="miter" stroke-miterlimit="10" stroke-dasharray="" stroke-dashoffset="0" font-family="none" font-weight="none" font-size="none" text-anchor="none" style="mix-blend-mode: normal"><g transform="scale(5.33333,5.33333)"><path d="M40,6h-32c-1.105,0 -2,0.895 -2,2v32c0,1.105 0.895,2 2,2h32c1.105,0 2,-0.895 2,-2v-32c0,-1.105 -0.895,-2 -2,-2z" fill="url(#color-1)"></path><path d="M38,21.632c0,-0.551 -0.449,-1 -1,-1h-2.131c-0.551,0 -1,0.449 -1,1c0,0 0.005,3.43 0.006,4.269c-0.135,0.001 -0.65,0 -0.65,0c-0.002,-0.568 -0.003,-4.278 -0.003,-4.278c0,-0.551 -0.449,-1 -1,-1h-2.115c-0.033,0 -0.06,0.015 -0.092,0.018v-1.678c0,-0.551 -0.449,-1 -1,-1h-2.105c-0.551,0 -1,0.449 -1,1v1.669c-0.001,0 -0.002,-0.001 -0.003,-0.001h-2.135c-0.551,0 -1,0.449 -1,1l0.006,4.27l-0.699,-0.001l-0.002,-4.083c0,-0.096 -0.011,-0.193 -0.026,-0.288c-0.061,-0.5 -0.5,-0.905 -0.997,-0.905h-2.093c-0.508,0 -0.936,0.392 -0.99,0.895c-0.368,-0.367 -0.822,-0.643 -1.323,-0.759c-0.509,-0.118 -0.997,-0.128 -1.469,-0.138l-1.074,-0.016v-1.642c0,-0.551 -0.449,-1 -1,-1h-2.105c-0.551,0 -1,0.449 -1,1v10.056c0,0.551 0.449,1 1,1h2.109c0.551,0 1,-0.449 1,-1c0,0 -0.001,-3.363 0,-4.282h0.643l-0.001,4.274c0,0.551 0.449,1 1,1h2.121c0.523,0 0.941,-0.408 0.984,-0.92c0.58,0.593 1.384,0.936 2.323,0.939l2.292,0.001c0.226,0 0.491,-0.006 0.769,-0.051c0.667,-0.109 1.241,-0.425 1.689,-0.871c0.051,0.504 0.463,0.904 0.981,0.904h2.105c0.523,0 0.941,-0.408 0.984,-0.92c0.015,0.015 0.026,0.034 0.041,0.049c0.594,0.577 1.39,0.895 2.241,0.895c0.053,0 2.189,0 2.297,0c0.221,0 0.515,-0.007 0.825,-0.059c1.549,-0.26 2.591,-1.55 2.595,-3.209c0.001,-0.95 0.002,-4.779 0.002,-4.779z" fill="#000000" opacity="0.05"></path><g fill="#000000" opacity="0.07"><path d="M16.537,21.248c-0.459,-0.106 -0.921,-0.116 -1.368,-0.125l-0.292,-0.007c-0.232,-0.007 -0.463,-0.01 -0.697,-0.01l-0.53,0.003h-0.044v-2.145c0,-0.276 -0.224,-0.5 -0.5,-0.5h-2.106c-0.276,0 -0.5,0.224 -0.5,0.5v10.056c0,0.276 0.224,0.5 0.5,0.5h2.109c0.276,0 0.5,-0.224 0.5,-0.5v-0.121v-0.204v-1.199c0,-1.041 -0.001,-2.082 0.001,-3.123c0,-0.07 0.008,-0.111 0.013,-0.13c0.002,0 0.004,0 0.006,0c0.014,0 0.043,-0.004 0.087,-0.004l0.598,-0.002l0.582,0.001h0.188c0.091,0 0.14,0.009 0.164,0.015c-0.004,0.014 0.005,0.064 0.005,0.156v3.102v1.22v0.198v0.083c0,0.276 0.224,0.5 0.5,0.5h2.121c0.276,0 0.5,-0.224 0.5,-0.5l0.003,-1.591c0.004,-1.302 0.007,-2.597 -0.011,-3.891c-0.016,-1.029 -0.835,-2.053 -1.829,-2.282z"></path><path d="M25.907,21.132h-2.135c-0.276,0 -0.5,0.224 -0.5,0.5v0.209v0.407l0.002,1.225l0.004,2.683c0,0.165 -0.031,0.215 -0.033,0.218v0c-0.001,0 -0.05,0.028 -0.2,0.028h-0.092l-0.509,-0.001l-0.513,-0.001h-0.104c-0.128,0 -0.196,-0.01 -0.23,-0.018c-0.008,-0.033 -0.018,-0.098 -0.018,-0.217l-0.001,-2.365l-0.001,-1.983c0,-0.07 -0.009,-0.141 -0.02,-0.21c-0.031,-0.251 -0.25,-0.482 -0.503,-0.482h-2.093c-0.26,0 -0.477,0.2 -0.498,0.46l-0.005,0.052c-0.006,0.055 -0.01,0.105 -0.01,0.154l-0.002,0.651c-0.004,1.457 -0.008,2.914 -0.008,4.37c0,0.173 0.007,0.401 0.065,0.633c0.323,1.303 1.323,2.083 2.676,2.086h0.075l0.911,0.002c0.294,0 0.589,-0.001 0.883,-0.003h0.063l0.176,0.001l0.185,0.001c0.203,0 0.443,-0.005 0.686,-0.045c1.314,-0.214 2.236,-1.351 2.242,-2.764c0.004,-0.929 0.004,-1.859 0.005,-2.788v-1.148v-0.796v-0.359c0.002,-0.276 -0.222,-0.5 -0.498,-0.5z"></path><path d="M37.5,21.632c0,-0.276 -0.224,-0.5 -0.5,-0.5h-2.131c-0.276,0 -0.5,0.224 -0.5,0.5v0.189v0.377l0.002,1.186c0.002,0.95 0.004,1.901 0.004,2.851c0,0.099 -0.015,0.142 -0.02,0.154h-0.001c-0.009,0 -0.045,0.01 -0.12,0.011c-0.252,0.002 -0.504,0.003 -0.755,0.003l-0.663,-0.003c-0.038,0 -0.065,-0.003 -0.083,-0.006c-0.003,-0.019 -0.006,-0.046 -0.006,-0.085c-0.005,-0.71 -0.005,-1.419 -0.005,-2.129v-0.741v-1.245v-0.571c0,-0.276 -0.224,-0.5 -0.5,-0.5h-2.115c-0.265,0 -0.483,0.206 -0.499,0.47l-0.006,0.085c-0.005,0.067 -0.009,0.123 -0.009,0.179l-0.002,0.914c-0.003,1.352 -0.005,2.703 -0.006,4.055c0,0.76 0.285,1.455 0.802,1.957c0.5,0.486 1.172,0.754 1.892,0.754c0.045,0 0.09,-0.001 0.135,-0.003c0.163,-0.008 0.327,-0.01 0.491,-0.01l0.416,0.003c0.143,0.002 0.286,0.003 0.428,0.003l0.148,-0.001h0.066c0.099,0 0.198,0.002 0.297,0.004c0.105,0.002 0.211,0.004 0.316,0.004c0.202,0 0.468,-0.006 0.742,-0.052c1.3,-0.218 2.175,-1.31 2.178,-2.717c0.002,-0.948 0.002,-1.896 0.002,-2.844v-1.143v-0.79z"></path><path d="M29.014,18.463h-2.105c-0.276,0 -0.5,0.224 -0.5,0.5v10.05c0,0.276 0.224,0.5 0.5,0.5h2.105c0.276,0 0.5,-0.224 0.5,-0.5v-10.05c0,-0.276 -0.224,-0.5 -0.5,-0.5z"></path></g><path d="M13.109,29.02c-0.725,0 -1.406,0 -2.109,0c0,-3.353 0,-6.694 0,-10.055c0.69,0 1.385,0 2.106,0c0,0.874 0,1.748 0,2.647c0.603,0 1.179,-0.014 1.755,0.004c0.523,0.017 1.06,0.003 1.563,0.119c0.782,0.181 1.429,0.999 1.439,1.801c0.025,1.819 0.008,3.638 0.008,5.476c-0.701,0 -1.394,0 -2.121,0c0,-0.097 0,-0.189 0,-0.28c0,-1.441 0.001,-2.882 0.001,-4.322c0,-0.488 -0.182,-0.67 -0.668,-0.671c-0.458,-0.001 -0.915,-0.003 -1.373,0.001c-0.412,0.003 -0.601,0.201 -0.602,0.634c-0.002,1.441 0,2.882 0,4.323c0.001,0.099 0.001,0.2 0.001,0.323z" fill="#ffffff"></path><path d="M18.962,21.625c0.695,0 1.383,0 2.093,0c0.008,0.063 0.023,0.128 0.023,0.193c0.001,1.449 0,2.899 0.002,4.348c0.001,0.567 0.176,0.735 0.748,0.735c0.406,0 0.811,0.002 1.217,0.002c0.509,0 0.733,-0.228 0.733,-0.747c-0.001,-1.303 -0.004,-2.605 -0.006,-3.908c0,-0.198 0,-0.395 0,-0.616c0.716,0 1.409,0 2.135,0c0,0.384 0,0.769 0,1.154c-0.001,1.311 0.001,2.623 -0.005,3.934c-0.005,1.165 -0.743,2.097 -1.823,2.273c-0.337,0.055 -0.688,0.034 -1.033,0.037c-0.621,0.005 -1.243,0.003 -1.865,0.001c-1.12,-0.003 -1.925,-0.626 -2.192,-1.706c-0.041,-0.165 -0.05,-0.342 -0.05,-0.513c0,-1.673 0.006,-3.346 0.01,-5.02c0.001,-0.051 0.008,-0.101 0.013,-0.167z" fill="#ffffff"></path><path d="M30.107,21.623c0.712,0 1.398,0 2.115,0c0,0.613 0,1.215 0,1.816c0.001,0.958 -0.001,1.915 0.005,2.873c0.003,0.407 0.186,0.585 0.586,0.588c0.475,0.003 0.95,0.003 1.424,-0.001c0.431,-0.003 0.638,-0.218 0.638,-0.665c0,-1.346 -0.004,-2.692 -0.006,-4.037c0,-0.181 0,-0.361 0,-0.565c0.711,0 1.404,0 2.131,0c0,0.379 0,0.764 0,1.148c-0.001,1.329 0,2.657 -0.003,3.986c-0.002,1.15 -0.688,2.045 -1.761,2.225c-0.438,0.073 -0.895,0.034 -1.343,0.038c-0.501,0.005 -1.002,-0.019 -1.502,0.004c-1.239,0.058 -2.306,-0.852 -2.306,-2.208c0,-1.656 0.004,-3.312 0.007,-4.968c0.001,-0.067 0.009,-0.135 0.015,-0.234z" fill="#ffffff"></path><path d="M29.014,18.963c0,3.361 0,6.696 0,10.05c-0.702,0 -1.395,0 -2.105,0c0,-3.352 0,-6.694 0,-10.05c0.699,0 1.387,0 2.105,0z" fill="#ffffff"></path></g></g></svg>